<svg width="34" height="34" viewBox="0 0 34 34" fill="none" xmlns="http://www.w3.org/2000/svg">
<g filter="url(#filter0_dd)">
<path d="M21.875 0H12.125C7.63838 0 4 3.63838 4 8.125V17.875C4 22.3616 7.63838 26 12.125 26H21.875C26.3616 26 30 22.3616 30 17.875V8.125C30 3.63838 26.3616 0 21.875 0ZM27.5625 17.875C27.5625 21.0112 25.0112 23.5625 21.875 23.5625H12.125C8.98875 23.5625 6.4375 21.0112 6.4375 17.875V8.125C6.4375 4.98875 8.98875 2.4375 12.125 2.4375H21.875C25.0112 2.4375 27.5625 4.98875 27.5625 8.125V17.875Z" fill="#D1A954"/>
<path d="M17 6.5C13.4104 6.5 10.5 9.41037 10.5 13C10.5 16.5896 13.4104 19.5 17 19.5C20.5896 19.5 23.5 16.5896 23.5 13C23.5 9.41037 20.5896 6.5 17 6.5ZM17 17.0625C14.7607 17.0625 12.9375 15.2393 12.9375 13C12.9375 10.7591 14.7607 8.9375 17 8.9375C19.2393 8.9375 21.0625 10.7591 21.0625 13C21.0625 15.2393 19.2393 17.0625 17 17.0625Z" fill="#D1A954"/>
<path d="M23.9854 6.87891C24.4637 6.87891 24.8515 6.49114 24.8515 6.01279C24.8515 5.53444 24.4637 5.14667 23.9854 5.14667C23.507 5.14667 23.1193 5.53444 23.1193 6.01279C23.1193 6.49114 23.507 6.87891 23.9854 6.87891Z" fill="#D1A954"/>
</g>
<defs>
<filter id="filter0_dd" x="0" y="0" width="34" height="34" filterUnits="userSpaceOnUse" color-interpolation-filters="sRGB">
<feFlood flood-opacity="0" result="BackgroundImageFix"/>
<feColorMatrix in="SourceAlpha" type="matrix" values="0 0 0 0 0 0 0 0 0 0 0 0 0 0 0 0 0 0 127 0"/>
<feOffset dy="4"/>
<feGaussianBlur stdDeviation="2"/>
<feColorMatrix type="matrix" values="0 0 0 0 0 0 0 0 0 0 0 0 0 0 0 0 0 0 0.25 0"/>
<feBlend mode="normal" in2="BackgroundImageFix" result="effect1_dropShadow"/>
<feColorMatrix in="SourceAlpha" type="matrix" values="0 0 0 0 0 0 0 0 0 0 0 0 0 0 0 0 0 0 127 0"/>
<feOffset dy="4"/>
<feGaussianBlur stdDeviation="2"/>
<feColorMatrix type="matrix" values="0 0 0 0 0 0 0 0 0 0 0 0 0 0 0 0 0 0 0.25 0"/>
<feBlend mode="normal" in2="effect1_dropShadow" result="effect2_dropShadow"/>
<feBlend mode="normal" in="SourceGraphic" in2="effect2_dropShadow" result="shape"/>
</filter>
</defs>
</svg>
