<svg xmlns="http://www.w3.org/2000/svg" width="61.188" height="89" viewBox="0 0 61.188 89">
  <metadata><?xpacket begin="﻿" id="W5M0MpCehiHzreSzNTczkc9d"?>
<x:xmpmeta xmlns:x="adobe:ns:meta/" x:xmptk="Adobe XMP Core 5.6-c138 79.159824, 2016/09/14-01:09:01        ">
   <rdf:RDF xmlns:rdf="http://www.w3.org/1999/02/22-rdf-syntax-ns#">
      <rdf:Description rdf:about=""/>
   </rdf:RDF>
</x:xmpmeta>
                                                                                                    
                                                                                                    
                                                                                                    
                                                                                                    
                                                                                                    
                                                                                                    
                                                                                                    
                                                                                                    
                                                                                                    
                                                                                                    
                                                                                                    
                                                                                                    
                                                                                                    
                                                                                                    
                                                                                                    
                                                                                                    
                                                                                                    
                                                                                                    
                                                                                                    
                                                                                                    
                           
<?xpacket end="w"?></metadata>
<defs>
    <style>
      .cls-1 {
        fill: #fff;
        fill-rule: evenodd;
      }
    </style>
  </defs>
  <path class="cls-1" d="M576.062,1895v-11.13H570.5V1895H559.375v-77.88H570.5V1806h5.562v11.12h11.125V1895H576.062Zm-5.562-66.75h-5.563v5.56H570.5v-5.56Zm0,11.12h-5.563v5.57H570.5v-5.57Zm0,11.13h-5.563v5.56H570.5v-5.56Zm0,11.12h-5.563v5.57H570.5v-5.57Zm0,11.13h-5.563v5.56H570.5v-5.56Zm11.125-44.5h-5.563v5.56h5.563v-5.56Zm0,11.12h-5.563v5.57h5.563v-5.57Zm0,11.13h-5.563v5.56h5.563v-5.56Zm0,11.12h-5.563v5.57h5.563v-5.57Zm0,11.13h-5.563v5.56h5.563v-5.56Zm-38.938,16.69h-5.562V1895H526v-55.63h5.562v-11.12h5.563v11.12h5.562v-11.12h5.563v11.12h5.562V1895H542.687v-5.56Zm-5.562-38.94h-5.563v5.56h5.563v-5.56Zm0,11.12h-5.563v5.57h5.563v-5.57Zm0,11.13h-5.563v5.56h5.563v-5.56Zm11.125-22.25h-5.563v5.56h5.563v-5.56Zm0,11.12h-5.563v5.57h5.563v-5.57Zm0,11.13h-5.563v5.56h5.563v-5.56Z" transform="translate(-526 -1806)"/>
</svg>
