<svg xmlns="http://www.w3.org/2000/svg" width="91" height="91" viewBox="0 0 91 91">
  <metadata><?xpacket begin="﻿" id="W5M0MpCehiHzreSzNTczkc9d"?>
<x:xmpmeta xmlns:x="adobe:ns:meta/" x:xmptk="Adobe XMP Core 5.6-c138 79.159824, 2016/09/14-01:09:01        ">
   <rdf:RDF xmlns:rdf="http://www.w3.org/1999/02/22-rdf-syntax-ns#">
      <rdf:Description rdf:about=""/>
   </rdf:RDF>
</x:xmpmeta>
                                                                                                    
                                                                                                    
                                                                                                    
                                                                                                    
                                                                                                    
                                                                                                    
                                                                                                    
                                                                                                    
                                                                                                    
                                                                                                    
                                                                                                    
                                                                                                    
                                                                                                    
                                                                                                    
                                                                                                    
                                                                                                    
                                                                                                    
                                                                                                    
                                                                                                    
                                                                                                    
                           
<?xpacket end="w"?></metadata>
<defs>
    <style>
      .cls-1 {
        fill: #fff;
        fill-rule: evenodd;
      }
    </style>
  </defs>
  <path id="compas" class="cls-1" d="M978.677,1857.91a32.489,32.489,0,0,1-24.806,24.85L947,1896.5l-6.872-13.74a32.492,32.492,0,0,1-24.806-24.85L901.5,1851l13.822-6.91a32.492,32.492,0,0,1,24.806-24.85L947,1805.5l6.871,13.74a32.489,32.489,0,0,1,24.806,24.85L992.5,1851ZM960,1828.48a26,26,0,1,0,9.516,35.52A26,26,0,0,0,960,1828.48Zm-7.371,25.77a6.486,6.486,0,0,1-2.508,2.43l-14.5,14.02,4.9-19.57a6.364,6.364,0,0,1,3.355-5.81l14.5-14.02-4.9,19.56A6.465,6.465,0,0,1,952.629,1854.25Z" transform="translate(-901.5 -1805.5)"/>
</svg>
