<svg xmlns="http://www.w3.org/2000/svg" width="70.687" height="73.75" viewBox="0 0 70.687 73.75">
  <metadata><?xpacket begin="﻿" id="W5M0MpCehiHzreSzNTczkc9d"?>
<x:xmpmeta xmlns:x="adobe:ns:meta/" x:xmptk="Adobe XMP Core 5.6-c138 79.159824, 2016/09/14-01:09:01        ">
   <rdf:RDF xmlns:rdf="http://www.w3.org/1999/02/22-rdf-syntax-ns#">
      <rdf:Description rdf:about=""/>
   </rdf:RDF>
</x:xmpmeta>
                                                                                                    
                                                                                                    
                                                                                                    
                                                                                                    
                                                                                                    
                                                                                                    
                                                                                                    
                                                                                                    
                                                                                                    
                                                                                                    
                                                                                                    
                                                                                                    
                                                                                                    
                                                                                                    
                                                                                                    
                                                                                                    
                                                                                                    
                                                                                                    
                                                                                                    
                                                                                                    
                           
<?xpacket end="w"?></metadata>
<defs>
    <style>
      .cls-1 {
        fill: #f5f6f7;
        fill-rule: evenodd;
      }
    </style>
  </defs>
  <path class="cls-1" d="M334.233,1870.75a6.81,6.81,0,0,0-2.157.33,20.341,20.341,0,0,0-1.989.78,16.781,16.781,0,0,1-2.035.79,6.95,6.95,0,0,1-2.117.34v-6.81a1.868,1.868,0,0,1,.582-0.16,4.933,4.933,0,0,1,1.16-.17,2.809,2.809,0,0,0,1.247-.33c1-.39,1.932-0.78,2.825-1.16a7.688,7.688,0,0,1,6.135.12,12.107,12.107,0,0,0,3.073,1.04h1.075v-16.34l-5.06-11.53a2.662,2.662,0,0,1-.21-0.55,3.506,3.506,0,0,1-.04-0.62,2.432,2.432,0,0,1,.542-1.58,4.669,4.669,0,0,1,1.364-1.12,15.634,15.634,0,0,1,1.7-.79c0.581-.22,1.121-0.41,1.616-0.58v-10.12h5.892v-5.31h8.3v-6.88h10.287v6.88h8.217v5.31h5.973v10.04a1.174,1.174,0,0,0,.788.42,18.688,18.688,0,0,1,1.785.66,5.9,5.9,0,0,1,1.782,1.16,2.426,2.426,0,0,1,.79,1.83v0.74a1.969,1.969,0,0,1-.169.67l-5.061,11.53v16.18a8.251,8.251,0,0,0,3.737-.87,8.233,8.233,0,0,1,3.732-.87,7.641,7.641,0,0,1,2.241.33c0.717,0.22,1.41.46,2.073,0.7s1.354,0.5,2.076.75a8.818,8.818,0,0,0,2.237.46v6.97a6.941,6.941,0,0,1-2.114-.34,19.55,19.55,0,0,1-2.075-.79,21.937,21.937,0,0,0-2.072-.78,7.216,7.216,0,0,0-2.2-.33,7.026,7.026,0,0,0-2.322.37c-0.717.25-1.439,0.52-2.158,0.83s-1.465.58-2.239,0.83a7.783,7.783,0,0,1-2.405.37,7.023,7.023,0,0,1-2.323-.37c-0.719-.25-1.44-0.53-2.157-0.83s-1.441-.58-2.158-0.83a6.746,6.746,0,0,0-2.239-.37,7.6,7.6,0,0,0-2.241.33,20.2,20.2,0,0,0-2.117.78,18.155,18.155,0,0,1-2.116.79,7.609,7.609,0,0,1-2.239.34,7.891,7.891,0,0,1-2.324-.34,20.643,20.643,0,0,1-2.156-.79q-1.078-.45-2.116-0.78a7.5,7.5,0,0,0-2.283-.33,7.022,7.022,0,0,0-2.322.37c-0.717.25-1.438,0.52-2.158,0.83s-1.436.58-2.156,0.83a7.025,7.025,0,0,1-2.324.37,7.378,7.378,0,0,1-2.361-.37c-0.751-.25-1.5-0.53-2.242-0.83s-1.511-.58-2.283-0.83A8.048,8.048,0,0,0,334.233,1870.75Zm0.415,10.7a7.491,7.491,0,0,0-2.281.33,21.665,21.665,0,0,0-2.074.79,21.615,21.615,0,0,1-2.077.79,7.482,7.482,0,0,1-2.281.33v-6.97l0.086-.25a11.956,11.956,0,0,0,1.743-.13,4.989,4.989,0,0,0,1.575-.45c0.941-.44,1.769-0.83,2.489-1.16a5.9,5.9,0,0,1,2.486-.5,6.8,6.8,0,0,1,1.952.29,18.722,18.722,0,0,1,1.825.66l1.745,0.75a7.927,7.927,0,0,0,1.866.54,5.7,5.7,0,0,0,.832.08h0.91a17.3,17.3,0,0,0,2.072-.12,7.749,7.749,0,0,0,1.993-.54,22.02,22.02,0,0,0,2.323-1,5.351,5.351,0,0,1,2.407-.49,7.389,7.389,0,0,1,2.362.37c0.75,0.25,1.478.51,2.2,0.79s1.455,0.54,2.2.78a7.042,7.042,0,0,0,4.564,0c0.747-.24,1.48-0.51,2.2-0.78s1.454-.54,2.2-0.79a7.393,7.393,0,0,1,2.364-.37,6.738,6.738,0,0,1,2.656.49c0.774,0.34,1.629.69,2.572,1.08a5.381,5.381,0,0,0,1.785.5,17.323,17.323,0,0,0,1.783.08h0.912a2.088,2.088,0,0,0,.5-0.04,1.937,1.937,0,0,1,.335-0.04,14.67,14.67,0,0,0,3.774-1.33,8.154,8.154,0,0,1,3.774-.91,5.276,5.276,0,0,1,2.656.66,11.285,11.285,0,0,0,2.572,1.08,5.616,5.616,0,0,0,1.535.37,11.041,11.041,0,0,0,1.45.13v7.13a8.449,8.449,0,0,1-2.445-.32c-0.693-.23-1.369-0.47-2.033-0.75s-1.327-.53-1.991-0.75a7.415,7.415,0,0,0-2.325-.33,6.771,6.771,0,0,0-2.241.37c-0.719.25-1.438,0.53-2.158,0.83s-1.436.58-2.153,0.83a7.056,7.056,0,0,1-2.327.37,6.765,6.765,0,0,1-2.237-.37,21.967,21.967,0,0,1-2.074-.83c-0.664-.3-1.356-0.58-2.077-0.83a6.755,6.755,0,0,0-2.239-.37,7.889,7.889,0,0,0-2.322.33q-1.083.33-2.158,0.75c-0.719.28-1.438,0.52-2.158,0.75a7.941,7.941,0,0,1-2.239.32,9.109,9.109,0,0,1-2.405-.32c-0.777-.23-1.537-0.49-2.283-0.79a22.417,22.417,0,0,0-2.239-.79,8.325,8.325,0,0,0-2.366-.33,6.1,6.1,0,0,0-2.158.37c-0.662.25-1.327,0.53-1.987,0.83a21.987,21.987,0,0,1-2.077.82,6.784,6.784,0,0,1-2.238.38,7.416,7.416,0,0,1-2.367-.38c-0.745-.24-1.48-0.51-2.2-0.78s-1.436-.54-2.156-0.79A7.017,7.017,0,0,0,334.648,1881.45Zm11.783-55.01v3.99l14.1-5.73a1.86,1.86,0,0,1,.746-0.17,1.349,1.349,0,0,1,.662.17l13.362,5.56a2.424,2.424,0,0,0,.909.17v-3.99h-5.89v-5.06h-18.17v5.06h-5.723Z" transform="translate(-325.938 -1810.09)"/>
</svg>
