<svg xmlns="http://www.w3.org/2000/svg" width="90" height="58.31" viewBox="0 0 90 58.31">
  <metadata><?xpacket begin="﻿" id="W5M0MpCehiHzreSzNTczkc9d"?>
<x:xmpmeta xmlns:x="adobe:ns:meta/" x:xmptk="Adobe XMP Core 5.6-c138 79.159824, 2016/09/14-01:09:01        ">
   <rdf:RDF xmlns:rdf="http://www.w3.org/1999/02/22-rdf-syntax-ns#">
      <rdf:Description rdf:about=""/>
   </rdf:RDF>
</x:xmpmeta>
                                                                                                    
                                                                                                    
                                                                                                    
                                                                                                    
                                                                                                    
                                                                                                    
                                                                                                    
                                                                                                    
                                                                                                    
                                                                                                    
                                                                                                    
                                                                                                    
                                                                                                    
                                                                                                    
                                                                                                    
                                                                                                    
                                                                                                    
                                                                                                    
                                                                                                    
                                                                                                    
                           
<?xpacket end="w"?></metadata>
<defs>
    <style>
      .cls-1 {
        fill: #1dd2af;
        fill-rule: evenodd;
      }
    </style>
  </defs>
  <path class="cls-1" d="M795.092,1859.83c-5.749,12.33-27.543,19.49-27.543,19.49a78.73,78.73,0,0,1-16.122-7.79,90.456,90.456,0,0,1-8.838,3.59s-26.334-8.65-33.281-23.55c-5.228-11.21-1.267-24.12,8.848-28.84,8.348-3.89,18.278-.99,24.433,6.45,6.154-7.44,16.084-10.34,24.433-6.45a18.986,18.986,0,0,1,9.53,10.18,18.815,18.815,0,0,0-9,6.06c-5.093-6.16-13.311-8.56-20.22-5.34-6.2,2.89-9.608,9.51-9.193,16.52a16.458,16.458,0,0,1,9.193-14.19c6.909-3.22,15.127-.81,20.22,5.34,5.093-6.15,13.312-8.56,20.22-5.34C796.141,1839.87,799.419,1850.55,795.092,1859.83Z" transform="translate(-707 -1821)"/>
</svg>
