<svg width="118" height="26" viewBox="0 0 118 26" fill="none" xmlns="http://www.w3.org/2000/svg">
<g clip-path="url(#clip0)">
<path fill-rule="evenodd" clip-rule="evenodd" d="M15.0916 0.671745C14.9777 0.805419 14.9712 0.98059 14.9551 4.52874C14.9445 6.78245 14.9144 8.24608 14.8791 8.24608C14.8467 8.24608 14.7696 8.18981 14.708 8.12118C14.5797 7.97754 13.9119 7.5378 13.4282 7.27763C12.1451 6.58812 9.95024 6.22621 8.40276 6.44926C7.28218 6.61046 5.32916 7.34787 4.87852 7.77922C4.80968 7.84546 4.55577 8.0342 4.31428 8.19899C3.89411 8.48549 2.46471 9.95429 2.46471 10.0992C2.46471 10.1367 2.30521 10.4144 2.10999 10.7164C1.5277 11.6187 1.2689 12.2998 0.913804 13.866C0.635823 15.0922 0.75657 17.0981 1.2121 18.8203C1.38551 19.4767 2.21193 21.1151 2.4143 21.2037C2.44214 21.2156 2.46471 21.2568 2.46471 21.2946C2.46471 21.5281 3.59807 22.7396 4.40832 23.372C6.5987 25.0822 9.94013 25.5926 12.4713 24.6034C13.1499 24.3385 14.375 23.6748 14.6816 23.4063L14.9096 23.2064L14.9408 23.9678C14.9693 24.6577 14.9863 24.7451 15.124 24.9003L15.2759 25.0719H16.6688C17.9467 25.0719 18.0738 25.0615 18.2096 24.9446L18.3574 24.8177V13.5416C18.3574 3.60539 18.3466 2.25429 18.2634 2.16929C18.2119 2.11622 17.9719 1.9622 17.7307 1.82653C17.4892 1.69086 17.2353 1.52766 17.1665 1.46341C16.3623 0.716435 15.3748 0.339755 15.0916 0.671745ZM67.7693 0.653389C67.6809 0.757137 67.6658 0.951064 67.6658 1.96858C67.6658 3.32887 67.6613 3.31411 68.1812 3.66485C68.3633 3.78775 68.5656 3.93978 68.6307 4.00282C68.6962 4.06587 68.908 4.20354 69.1009 4.30848C69.2942 4.41342 69.6449 4.63927 69.8796 4.81005C70.4412 5.21826 70.774 5.23023 70.9595 4.84956C71.0971 4.56704 71.0938 1.01172 70.9553 0.728007L70.8598 0.531686H69.3665C67.9995 0.531686 67.8645 0.542061 67.7693 0.653389ZM104.812 0.576775C103.921 0.696484 102.416 1.17651 101.659 1.58193C101.462 1.68767 101.223 1.79461 101.129 1.81895C100.927 1.87202 99.7296 2.71755 99.1131 3.24347C98.3047 3.93299 96.9944 5.46805 96.6929 6.07936C96.4823 6.50552 96.1775 7.0502 96.1325 7.07972C96.0535 7.1316 95.4591 8.65189 95.313 9.17741C94.7483 11.2033 94.7492 11.1937 94.7492 17.3794V22.7383L94.9003 23.1804C94.9835 23.4238 95.1202 23.702 95.2026 23.7986C95.285 23.8955 95.3988 24.0523 95.454 24.1477C95.5983 24.3943 96.2072 24.8046 96.6445 24.9489C97.1566 25.1178 106.498 25.1365 107.602 24.9705C109.369 24.7052 111.554 23.8046 112.773 22.8385C112.98 22.6745 113.207 22.5149 113.277 22.4838C113.346 22.4522 113.666 22.1613 113.989 21.8373C114.312 21.5129 114.601 21.2376 114.631 21.2253C114.662 21.2129 114.905 20.9148 115.172 20.5629C115.44 20.2109 115.717 19.8534 115.792 19.7688C115.865 19.6842 116.03 19.3989 116.158 19.1347C116.286 18.8702 116.428 18.6092 116.475 18.5541C116.521 18.4987 116.696 18.1392 116.866 17.7549C118.134 14.8743 118.178 10.9396 116.975 8.01265C116.78 7.5374 116.582 7.10406 116.536 7.049C116.49 6.99433 116.351 6.73496 116.228 6.4732C115.763 5.4888 114.184 3.63293 113.212 2.93183C113.04 2.80694 112.758 2.59466 112.585 2.45899C110.817 1.07037 107.362 0.234011 104.812 0.576775ZM107.194 5.15721C108.56 5.53469 109.655 6.70623 110.014 8.17585C110.18 8.8542 110.151 13.103 109.977 13.7255C109.836 14.2295 109.67 14.6129 109.495 14.842C108.693 15.8946 108.176 16.3008 107.269 16.5909C105.429 17.1791 103.244 15.9278 102.661 13.9521C102.474 13.3201 102.371 9.25362 102.52 8.43921C102.961 6.03946 105.058 4.56705 107.194 5.15721ZM28.7018 6.35988C27.3559 6.47799 25.2234 7.28004 24.4896 7.94402C24.3583 8.06293 24.1537 8.21336 24.0348 8.278C23.6154 8.50704 22.3567 9.96991 22.0024 10.6403C20.9609 12.6103 20.646 13.7874 20.646 15.7075C20.646 23.7695 29.646 28.0733 35.3139 22.722C37.2481 20.8956 37.3257 20.4903 35.8078 20.1267C35.3824 20.025 34.773 19.8686 34.4544 19.78C33.5922 19.5397 33.4437 19.5553 33.048 19.9284C31.177 21.6913 28.5314 21.904 26.5084 20.4543C25.5233 19.7484 24.6939 18.6771 24.44 17.7829L24.3572 17.4904H31.1152H37.8733L38.0757 17.2896L38.2784 17.0889L38.243 15.7434C38.2227 14.9581 38.1705 14.2179 38.1174 13.9657C38.0678 13.7279 37.9806 13.3089 37.9233 13.0344C37.8083 12.4818 37.279 11.2552 36.9337 10.74C36.8111 10.5572 36.6933 10.3478 36.6722 10.2744C36.5977 10.015 35.2819 8.57567 34.846 8.2764C34.6733 8.1583 34.427 7.97195 34.2979 7.86221C33.1732 6.90734 30.5356 6.19946 28.7018 6.35988ZM46.9455 6.45125C46.4053 6.50153 45.5037 6.72818 45.2167 6.88539C45.1192 6.93887 44.9952 6.98276 44.9406 6.98276C44.1503 6.98276 42.1529 8.98348 41.3968 10.5329C40.4749 12.4211 40.4489 12.6704 40.4707 19.3749L40.4884 24.7511L40.6641 24.9114C40.8905 25.1178 43.3995 25.1648 43.6827 24.9681C43.9355 24.7921 43.9355 24.7917 43.9678 18.9536L43.9991 13.2674L44.1913 12.7646C44.2974 12.4881 44.5419 12.0392 44.7348 11.7671C45.3725 10.8673 45.3178 10.9168 46.2248 10.4164C47.1904 9.8833 48.2286 9.92839 49.1698 10.5441C49.4184 10.7069 49.6418 10.8397 49.6659 10.8397C49.8972 10.8397 50.8169 12.2974 51.0246 12.9925C51.2826 13.8572 51.3018 14.3221 51.3022 19.689C51.3029 24.7207 51.3044 24.7826 51.4305 24.9263C51.6393 25.164 54.2182 25.1513 54.4811 24.9114L54.6568 24.7511L54.691 19.1754L54.7256 13.5998L54.919 12.9681C56.1189 9.05092 60.5065 9.12234 61.8181 13.0807L61.9904 13.5998L62.0223 19.2261C62.0491 23.8592 62.0697 24.8715 62.1409 24.9621C62.2981 25.1632 65.0899 25.1238 65.2723 24.9179L65.4089 24.7642V19.1771C65.4089 12.88 65.4164 13.0069 64.9406 11.5408C64.5306 10.2771 63.5668 8.73409 62.9014 8.27521C62.7807 8.19221 62.5595 8.00626 62.4098 7.86262C61.2264 6.72459 58.5692 6.11368 56.8622 6.58732C55.3869 6.99672 54.4326 7.57053 53.4211 8.65588L52.9378 9.17462L52.6688 8.83983C51.3451 7.19105 49.0922 6.25055 46.9455 6.45125ZM68.0589 6.4309C67.635 6.51749 67.6658 5.78967 67.6658 15.7985V24.7962L67.831 24.9342C67.9968 25.0727 70.4637 25.1537 70.7661 25.0304C71.0596 24.9111 71.0513 25.19 71.0513 15.7613C71.0513 6.08854 71.0705 6.59729 70.6992 6.44766C70.5472 6.38621 68.3444 6.37225 68.0589 6.4309ZM80.6117 6.5135C79.8444 6.65875 78.7384 7.02585 78.1953 7.31635C77.7748 7.541 77.124 7.96277 77.0699 8.04577C77.0526 8.07171 76.9114 8.17664 76.7561 8.278C76.6011 8.37975 76.2092 8.75085 75.8857 9.10279C73.7551 11.4191 72.9577 14.1724 73.4372 17.557C73.7709 19.9104 75.675 22.7296 77.6965 23.8632C78.5358 24.3337 78.7155 24.4198 79.3136 24.6381C82.4275 25.7746 86.0297 24.8631 88.4168 22.3357C90.4056 20.2304 91.4076 16.634 90.7775 13.866C90.4226 12.3034 90.1967 11.6896 89.6778 10.8733C89.5156 10.6171 89.3084 10.2731 89.2176 10.1083C88.9849 9.685 87.8886 8.55453 87.2746 8.10403C85.3231 6.67312 82.868 6.08695 80.6117 6.5135ZM105.584 6.45524C104.869 6.63441 104.173 7.30597 103.909 8.0713L103.745 8.54535V10.8733C103.745 13.1365 103.75 13.2128 103.891 13.6329C104.619 15.8048 107.591 15.9952 108.564 13.9322C108.848 13.3296 108.864 13.141 108.843 10.7057L108.824 8.41247L108.63 7.98032C108.083 6.7601 106.843 6.13962 105.584 6.45524ZM106.698 9.27038L106.912 9.49661V11.2176C106.912 12.7304 106.899 12.9582 106.805 13.103C106.537 13.5153 106.197 13.5536 105.871 13.2076L105.658 12.9813V11.2388V9.49661L105.871 9.27038C106.025 9.10758 106.14 9.04414 106.284 9.04414C106.43 9.04414 106.545 9.10758 106.698 9.27038ZM10.8207 10.1706C14.6414 11.2124 16.2024 15.8711 13.8421 19.1863C13.3959 19.8127 13.2311 19.9754 12.436 20.5764C10.402 22.113 7.23328 21.5879 5.45141 19.4188C2.09645 15.3352 5.8776 8.82227 10.8207 10.1706ZM30.8335 10.1746C32.4551 10.7049 33.7419 11.8745 34.3434 13.3644L34.559 13.8991H29.4545H24.3504L24.4354 13.6433C24.6122 13.1114 25.0331 12.3613 25.3171 12.0704C25.3886 11.997 25.5093 11.8513 25.5853 11.746C26.557 10.3984 29.1461 9.62313 30.8335 10.1746ZM83.4954 10.2097C84.5685 10.5396 85.1663 10.9124 85.9227 11.7236C89.7432 15.8228 86.1571 22.5863 80.8499 21.2899C79.9655 21.074 79.6454 20.9004 78.6279 20.0848C77.1089 18.867 76.4074 16.4289 76.9445 14.2363C77.6833 11.2229 80.7197 9.35657 83.4954 10.2097ZM112.717 14.6572C112.834 14.7818 112.93 14.9481 112.93 15.0276C112.93 15.4026 112.261 17.1891 112.058 17.3575C112.036 17.3754 111.842 17.63 111.625 17.9225C111.409 18.2154 111.138 18.5294 111.025 18.6208C110.909 18.7126 110.608 18.9555 110.353 19.1614C109.656 19.7249 109.014 20.027 107.758 20.3837C106.22 20.8206 103.773 20.3546 102.436 19.3702C101.515 18.6926 100.442 17.5143 100.299 17.0246C100.271 16.9333 100.157 16.6623 100.044 16.4221C99.5012 15.2726 99.5887 14.664 100.298 14.664C100.654 14.664 100.793 14.8077 100.962 15.3531C101.037 15.5957 101.193 15.968 101.309 16.1804C101.425 16.3926 101.521 16.5902 101.521 16.6193C101.521 16.8766 102.805 18.1571 103.351 18.4429C106.66 20.1786 110.485 18.7824 111.519 15.4621C111.843 14.4195 112.242 14.1525 112.717 14.6572Z" fill="white"/>
<path fill-rule="evenodd" clip-rule="evenodd" d="M15.0916 0.671745C14.9777 0.805419 14.9712 0.98059 14.9551 4.52874C14.9445 6.78245 14.9144 8.24608 14.8791 8.24608C14.8467 8.24608 14.7696 8.18981 14.708 8.12118C14.5797 7.97754 13.9119 7.5378 13.4282 7.27763C12.1451 6.58812 9.95024 6.22621 8.40276 6.44926C7.28218 6.61046 5.32916 7.34787 4.87852 7.77922C4.80968 7.84546 4.55577 8.0342 4.31428 8.19899C3.89411 8.48549 2.46471 9.95429 2.46471 10.0992C2.46471 10.1367 2.30521 10.4144 2.10999 10.7164C1.5277 11.6187 1.2689 12.2998 0.913804 13.866C0.635823 15.0922 0.75657 17.0981 1.2121 18.8203C1.38551 19.4767 2.21193 21.1151 2.4143 21.2037C2.44214 21.2156 2.46471 21.2568 2.46471 21.2946C2.46471 21.5281 3.59807 22.7396 4.40832 23.372C6.5987 25.0822 9.94013 25.5926 12.4713 24.6034C13.1499 24.3385 14.375 23.6748 14.6816 23.4063L14.9096 23.2064L14.9408 23.9678C14.9693 24.6577 14.9863 24.7451 15.124 24.9003L15.2759 25.0719H16.6688C17.9467 25.0719 18.0738 25.0615 18.2096 24.9446L18.3574 24.8177V13.5416C18.3574 3.60539 18.3466 2.25429 18.2634 2.16929C18.2119 2.11622 17.9719 1.9622 17.7307 1.82653C17.4892 1.69086 17.2353 1.52766 17.1665 1.46341C16.3623 0.716435 15.3748 0.339755 15.0916 0.671745ZM67.7693 0.653389C67.6809 0.757137 67.6658 0.951064 67.6658 1.96858C67.6658 3.32887 67.6613 3.31411 68.1812 3.66485C68.3633 3.78775 68.5656 3.93978 68.6307 4.00282C68.6962 4.06587 68.908 4.20354 69.1009 4.30848C69.2942 4.41342 69.6449 4.63927 69.8796 4.81005C70.4412 5.21826 70.774 5.23023 70.9595 4.84956C71.0971 4.56704 71.0938 1.01172 70.9553 0.728007L70.8598 0.531686H69.3665C67.9995 0.531686 67.8645 0.542061 67.7693 0.653389ZM104.812 0.576775C103.921 0.696484 102.416 1.17651 101.659 1.58193C101.462 1.68767 101.223 1.79461 101.129 1.81895C100.927 1.87202 99.7296 2.71755 99.1131 3.24347C98.3047 3.93299 96.9944 5.46805 96.6929 6.07936C96.4823 6.50552 96.1775 7.0502 96.1325 7.07972C96.0535 7.1316 95.4591 8.65189 95.313 9.17741C94.7483 11.2033 94.7492 11.1937 94.7492 17.3794V22.7383L94.9003 23.1804C94.9835 23.4238 95.1202 23.702 95.2026 23.7986C95.285 23.8955 95.3988 24.0523 95.454 24.1477C95.5983 24.3943 96.2072 24.8046 96.6445 24.9489C97.1566 25.1178 106.498 25.1365 107.602 24.9705C109.369 24.7052 111.554 23.8046 112.773 22.8385C112.98 22.6745 113.207 22.5149 113.277 22.4838C113.346 22.4522 113.666 22.1613 113.989 21.8373C114.312 21.5129 114.601 21.2376 114.631 21.2253C114.662 21.2129 114.905 20.9148 115.172 20.5629C115.44 20.2109 115.717 19.8534 115.792 19.7688C115.865 19.6842 116.03 19.3989 116.158 19.1347C116.286 18.8702 116.428 18.6092 116.475 18.5541C116.521 18.4987 116.696 18.1392 116.866 17.7549C118.134 14.8743 118.178 10.9396 116.975 8.01265C116.78 7.5374 116.582 7.10406 116.536 7.049C116.49 6.99433 116.351 6.73496 116.228 6.4732C115.763 5.4888 114.184 3.63293 113.212 2.93183C113.04 2.80694 112.758 2.59466 112.585 2.45899C110.817 1.07037 107.362 0.234011 104.812 0.576775ZM107.194 5.15721C108.56 5.53469 109.655 6.70623 110.014 8.17585C110.18 8.8542 110.151 13.103 109.977 13.7255C109.836 14.2295 109.67 14.6129 109.495 14.842C108.693 15.8946 108.176 16.3008 107.269 16.5909C105.429 17.1791 103.244 15.9278 102.661 13.9521C102.474 13.3201 102.371 9.25362 102.52 8.43921C102.961 6.03946 105.058 4.56705 107.194 5.15721ZM28.7018 6.35988C27.3559 6.47799 25.2234 7.28004 24.4896 7.94402C24.3583 8.06293 24.1537 8.21336 24.0348 8.278C23.6154 8.50704 22.3567 9.96991 22.0024 10.6403C20.9609 12.6103 20.646 13.7874 20.646 15.7075C20.646 23.7695 29.646 28.0733 35.3139 22.722C37.2481 20.8956 37.3257 20.4903 35.8078 20.1267C35.3824 20.025 34.773 19.8686 34.4544 19.78C33.5922 19.5397 33.4437 19.5553 33.048 19.9284C31.177 21.6913 28.5314 21.904 26.5084 20.4543C25.5233 19.7484 24.6939 18.6771 24.44 17.7829L24.3572 17.4904H31.1152H37.8733L38.0757 17.2896L38.2784 17.0889L38.243 15.7434C38.2227 14.9581 38.1705 14.2179 38.1174 13.9657C38.0678 13.7279 37.9806 13.3089 37.9233 13.0344C37.8083 12.4818 37.279 11.2552 36.9337 10.74C36.8111 10.5572 36.6933 10.3478 36.6722 10.2744C36.5977 10.015 35.2819 8.57567 34.846 8.2764C34.6733 8.1583 34.427 7.97195 34.2979 7.86221C33.1732 6.90734 30.5356 6.19946 28.7018 6.35988ZM46.9455 6.45125C46.4053 6.50153 45.5037 6.72818 45.2167 6.88539C45.1192 6.93887 44.9952 6.98276 44.9406 6.98276C44.1503 6.98276 42.1529 8.98348 41.3968 10.5329C40.4749 12.4211 40.4489 12.6704 40.4707 19.3749L40.4884 24.7511L40.6641 24.9114C40.8905 25.1178 43.3995 25.1648 43.6827 24.9681C43.9355 24.7921 43.9355 24.7917 43.9678 18.9536L43.9991 13.2674L44.1913 12.7646C44.2974 12.4881 44.5419 12.0392 44.7348 11.7671C45.3725 10.8673 45.3178 10.9168 46.2248 10.4164C47.1904 9.8833 48.2286 9.92839 49.1698 10.5441C49.4184 10.7069 49.6418 10.8397 49.6659 10.8397C49.8972 10.8397 50.8169 12.2974 51.0246 12.9925C51.2826 13.8572 51.3018 14.3221 51.3022 19.689C51.3029 24.7207 51.3044 24.7826 51.4305 24.9263C51.6393 25.164 54.2182 25.1513 54.4811 24.9114L54.6568 24.7511L54.691 19.1754L54.7256 13.5998L54.919 12.9681C56.1189 9.05092 60.5065 9.12234 61.8181 13.0807L61.9904 13.5998L62.0223 19.2261C62.0491 23.8592 62.0697 24.8715 62.1409 24.9621C62.2981 25.1632 65.0899 25.1238 65.2723 24.9179L65.4089 24.7642V19.1771C65.4089 12.88 65.4164 13.0069 64.9406 11.5408C64.5306 10.2771 63.5668 8.73409 62.9014 8.27521C62.7807 8.19221 62.5595 8.00626 62.4098 7.86262C61.2264 6.72459 58.5692 6.11368 56.8622 6.58732C55.3869 6.99672 54.4326 7.57053 53.4211 8.65588L52.9378 9.17462L52.6688 8.83983C51.3451 7.19105 49.0922 6.25055 46.9455 6.45125ZM68.0589 6.4309C67.635 6.51749 67.6658 5.78967 67.6658 15.7985V24.7962L67.831 24.9342C67.9968 25.0727 70.4637 25.1537 70.7661 25.0304C71.0596 24.9111 71.0513 25.19 71.0513 15.7613C71.0513 6.08854 71.0705 6.59729 70.6992 6.44766C70.5472 6.38621 68.3444 6.37225 68.0589 6.4309ZM80.6117 6.5135C79.8444 6.65875 78.7384 7.02585 78.1953 7.31635C77.7748 7.541 77.124 7.96277 77.0699 8.04577C77.0526 8.07171 76.9114 8.17664 76.7561 8.278C76.6011 8.37975 76.2092 8.75085 75.8857 9.10279C73.7551 11.4191 72.9577 14.1724 73.4372 17.557C73.7709 19.9104 75.675 22.7296 77.6965 23.8632C78.5358 24.3337 78.7155 24.4198 79.3136 24.6381C82.4275 25.7746 86.0297 24.8631 88.4168 22.3357C90.4056 20.2304 91.4076 16.634 90.7775 13.866C90.4226 12.3034 90.1967 11.6896 89.6778 10.8733C89.5156 10.6171 89.3084 10.2731 89.2176 10.1083C88.9849 9.685 87.8886 8.55453 87.2746 8.10403C85.3231 6.67312 82.868 6.08695 80.6117 6.5135ZM105.584 6.45524C104.869 6.63441 104.173 7.30597 103.909 8.0713L103.745 8.54535V10.8733C103.745 13.1365 103.75 13.2128 103.891 13.6329C104.619 15.8048 107.591 15.9952 108.564 13.9322C108.848 13.3296 108.864 13.141 108.843 10.7057L108.824 8.41247L108.63 7.98032C108.083 6.7601 106.843 6.13962 105.584 6.45524ZM106.698 9.27038L106.912 9.49661V11.2176C106.912 12.7304 106.899 12.9582 106.805 13.103C106.537 13.5153 106.197 13.5536 105.871 13.2076L105.658 12.9813V11.2388V9.49661L105.871 9.27038C106.025 9.10758 106.14 9.04414 106.284 9.04414C106.43 9.04414 106.545 9.10758 106.698 9.27038ZM10.8207 10.1706C14.6414 11.2124 16.2024 15.8711 13.8421 19.1863C13.3959 19.8127 13.2311 19.9754 12.436 20.5764C10.402 22.113 7.23328 21.5879 5.45141 19.4188C2.09645 15.3352 5.8776 8.82227 10.8207 10.1706ZM30.8335 10.1746C32.4551 10.7049 33.7419 11.8745 34.3434 13.3644L34.559 13.8991H29.4545H24.3504L24.4354 13.6433C24.6122 13.1114 25.0331 12.3613 25.3171 12.0704C25.3886 11.997 25.5093 11.8513 25.5853 11.746C26.557 10.3984 29.1461 9.62313 30.8335 10.1746ZM83.4954 10.2097C84.5685 10.5396 85.1663 10.9124 85.9227 11.7236C89.7432 15.8228 86.1571 22.5863 80.8499 21.2899C79.9655 21.074 79.6454 20.9004 78.6279 20.0848C77.1089 18.867 76.4074 16.4289 76.9445 14.2363C77.6833 11.2229 80.7197 9.35657 83.4954 10.2097ZM112.717 14.6572C112.834 14.7818 112.93 14.9481 112.93 15.0276C112.93 15.4026 112.261 17.1891 112.058 17.3575C112.036 17.3754 111.842 17.63 111.625 17.9225C111.409 18.2154 111.138 18.5294 111.025 18.6208C110.909 18.7126 110.608 18.9555 110.353 19.1614C109.656 19.7249 109.014 20.027 107.758 20.3837C106.22 20.8206 103.773 20.3546 102.436 19.3702C101.515 18.6926 100.442 17.5143 100.299 17.0246C100.271 16.9333 100.157 16.6623 100.044 16.4221C99.5012 15.2726 99.5887 14.664 100.298 14.664C100.654 14.664 100.793 14.8077 100.962 15.3531C101.037 15.5957 101.193 15.968 101.309 16.1804C101.425 16.3926 101.521 16.5902 101.521 16.6193C101.521 16.8766 102.805 18.1571 103.351 18.4429C106.66 20.1786 110.485 18.7824 111.519 15.4621C111.843 14.4195 112.242 14.1525 112.717 14.6572Z" fill="white"/>
<path fill-rule="evenodd" clip-rule="evenodd" d="M15.0916 0.671745C14.9777 0.805419 14.9712 0.98059 14.9551 4.52874C14.9445 6.78245 14.9144 8.24608 14.8791 8.24608C14.8467 8.24608 14.7696 8.18981 14.708 8.12118C14.5797 7.97754 13.9119 7.5378 13.4282 7.27763C12.1451 6.58812 9.95024 6.22621 8.40276 6.44926C7.28218 6.61046 5.32916 7.34787 4.87852 7.77922C4.80968 7.84546 4.55577 8.0342 4.31428 8.19899C3.89411 8.48549 2.46471 9.95429 2.46471 10.0992C2.46471 10.1367 2.30521 10.4144 2.10999 10.7164C1.5277 11.6187 1.2689 12.2998 0.913804 13.866C0.635823 15.0922 0.75657 17.0981 1.2121 18.8203C1.38551 19.4767 2.21193 21.1151 2.4143 21.2037C2.44214 21.2156 2.46471 21.2568 2.46471 21.2946C2.46471 21.5281 3.59807 22.7396 4.40832 23.372C6.5987 25.0822 9.94013 25.5926 12.4713 24.6034C13.1499 24.3385 14.375 23.6748 14.6816 23.4063L14.9096 23.2064L14.9408 23.9678C14.9693 24.6577 14.9863 24.7451 15.124 24.9003L15.2759 25.0719H16.6688C17.9467 25.0719 18.0738 25.0615 18.2096 24.9446L18.3574 24.8177V13.5416C18.3574 3.60539 18.3466 2.25429 18.2634 2.16929C18.2119 2.11622 17.9719 1.9622 17.7307 1.82653C17.4892 1.69086 17.2353 1.52766 17.1665 1.46341C16.3623 0.716435 15.3748 0.339755 15.0916 0.671745ZM67.7693 0.653389C67.6809 0.757137 67.6658 0.951064 67.6658 1.96858C67.6658 3.32887 67.6613 3.31411 68.1812 3.66485C68.3633 3.78775 68.5656 3.93978 68.6307 4.00282C68.6962 4.06587 68.908 4.20354 69.1009 4.30848C69.2942 4.41342 69.6449 4.63927 69.8796 4.81005C70.4412 5.21826 70.774 5.23023 70.9595 4.84956C71.0971 4.56704 71.0938 1.01172 70.9553 0.728007L70.8598 0.531686H69.3665C67.9995 0.531686 67.8645 0.542061 67.7693 0.653389ZM104.812 0.576775C103.921 0.696484 102.416 1.17651 101.659 1.58193C101.462 1.68767 101.223 1.79461 101.129 1.81895C100.927 1.87202 99.7296 2.71755 99.1131 3.24347C98.3047 3.93299 96.9944 5.46805 96.6929 6.07936C96.4823 6.50552 96.1775 7.0502 96.1325 7.07972C96.0535 7.1316 95.4591 8.65189 95.313 9.17741C94.7483 11.2033 94.7492 11.1937 94.7492 17.3794V22.7383L94.9003 23.1804C94.9835 23.4238 95.1202 23.702 95.2026 23.7986C95.285 23.8955 95.3988 24.0523 95.454 24.1477C95.5983 24.3943 96.2072 24.8046 96.6445 24.9489C97.1566 25.1178 106.498 25.1365 107.602 24.9705C109.369 24.7052 111.554 23.8046 112.773 22.8385C112.98 22.6745 113.207 22.5149 113.277 22.4838C113.346 22.4522 113.666 22.1613 113.989 21.8373C114.312 21.5129 114.601 21.2376 114.631 21.2253C114.662 21.2129 114.905 20.9148 115.172 20.5629C115.44 20.2109 115.717 19.8534 115.792 19.7688C115.865 19.6842 116.03 19.3989 116.158 19.1347C116.286 18.8702 116.428 18.6092 116.475 18.5541C116.521 18.4987 116.696 18.1392 116.866 17.7549C118.134 14.8743 118.178 10.9396 116.975 8.01265C116.78 7.5374 116.582 7.10406 116.536 7.049C116.49 6.99433 116.351 6.73496 116.228 6.4732C115.763 5.4888 114.184 3.63293 113.212 2.93183C113.04 2.80694 112.758 2.59466 112.585 2.45899C110.817 1.07037 107.362 0.234011 104.812 0.576775ZM107.194 5.15721C108.56 5.53469 109.655 6.70623 110.014 8.17585C110.18 8.8542 110.151 13.103 109.977 13.7255C109.836 14.2295 109.67 14.6129 109.495 14.842C108.693 15.8946 108.176 16.3008 107.269 16.5909C105.429 17.1791 103.244 15.9278 102.661 13.9521C102.474 13.3201 102.371 9.25362 102.52 8.43921C102.961 6.03946 105.058 4.56705 107.194 5.15721ZM28.7018 6.35988C27.3559 6.47799 25.2234 7.28004 24.4896 7.94402C24.3583 8.06293 24.1537 8.21336 24.0348 8.278C23.6154 8.50704 22.3567 9.96991 22.0024 10.6403C20.9609 12.6103 20.646 13.7874 20.646 15.7075C20.646 23.7695 29.646 28.0733 35.3139 22.722C37.2481 20.8956 37.3257 20.4903 35.8078 20.1267C35.3824 20.025 34.773 19.8686 34.4544 19.78C33.5922 19.5397 33.4437 19.5553 33.048 19.9284C31.177 21.6913 28.5314 21.904 26.5084 20.4543C25.5233 19.7484 24.6939 18.6771 24.44 17.7829L24.3572 17.4904H31.1152H37.8733L38.0757 17.2896L38.2784 17.0889L38.243 15.7434C38.2227 14.9581 38.1705 14.2179 38.1174 13.9657C38.0678 13.7279 37.9806 13.3089 37.9233 13.0344C37.8083 12.4818 37.279 11.2552 36.9337 10.74C36.8111 10.5572 36.6933 10.3478 36.6722 10.2744C36.5977 10.015 35.2819 8.57567 34.846 8.2764C34.6733 8.1583 34.427 7.97195 34.2979 7.86221C33.1732 6.90734 30.5356 6.19946 28.7018 6.35988ZM46.9455 6.45125C46.4053 6.50153 45.5037 6.72818 45.2167 6.88539C45.1192 6.93887 44.9952 6.98276 44.9406 6.98276C44.1503 6.98276 42.1529 8.98348 41.3968 10.5329C40.4749 12.4211 40.4489 12.6704 40.4707 19.3749L40.4884 24.7511L40.6641 24.9114C40.8905 25.1178 43.3995 25.1648 43.6827 24.9681C43.9355 24.7921 43.9355 24.7917 43.9678 18.9536L43.9991 13.2674L44.1913 12.7646C44.2974 12.4881 44.5419 12.0392 44.7348 11.7671C45.3725 10.8673 45.3178 10.9168 46.2248 10.4164C47.1904 9.8833 48.2286 9.92839 49.1698 10.5441C49.4184 10.7069 49.6418 10.8397 49.6659 10.8397C49.8972 10.8397 50.8169 12.2974 51.0246 12.9925C51.2826 13.8572 51.3018 14.3221 51.3022 19.689C51.3029 24.7207 51.3044 24.7826 51.4305 24.9263C51.6393 25.164 54.2182 25.1513 54.4811 24.9114L54.6568 24.7511L54.691 19.1754L54.7256 13.5998L54.919 12.9681C56.1189 9.05092 60.5065 9.12234 61.8181 13.0807L61.9904 13.5998L62.0223 19.2261C62.0491 23.8592 62.0697 24.8715 62.1409 24.9621C62.2981 25.1632 65.0899 25.1238 65.2723 24.9179L65.4089 24.7642V19.1771C65.4089 12.88 65.4164 13.0069 64.9406 11.5408C64.5306 10.2771 63.5668 8.73409 62.9014 8.27521C62.7807 8.19221 62.5595 8.00626 62.4098 7.86262C61.2264 6.72459 58.5692 6.11368 56.8622 6.58732C55.3869 6.99672 54.4326 7.57053 53.4211 8.65588L52.9378 9.17462L52.6688 8.83983C51.3451 7.19105 49.0922 6.25055 46.9455 6.45125ZM68.0589 6.4309C67.635 6.51749 67.6658 5.78967 67.6658 15.7985V24.7962L67.831 24.9342C67.9968 25.0727 70.4637 25.1537 70.7661 25.0304C71.0596 24.9111 71.0513 25.19 71.0513 15.7613C71.0513 6.08854 71.0705 6.59729 70.6992 6.44766C70.5472 6.38621 68.3444 6.37225 68.0589 6.4309ZM80.6117 6.5135C79.8444 6.65875 78.7384 7.02585 78.1953 7.31635C77.7748 7.541 77.124 7.96277 77.0699 8.04577C77.0526 8.07171 76.9114 8.17664 76.7561 8.278C76.6011 8.37975 76.2092 8.75085 75.8857 9.10279C73.7551 11.4191 72.9577 14.1724 73.4372 17.557C73.7709 19.9104 75.675 22.7296 77.6965 23.8632C78.5358 24.3337 78.7155 24.4198 79.3136 24.6381C82.4275 25.7746 86.0297 24.8631 88.4168 22.3357C90.4056 20.2304 91.4076 16.634 90.7775 13.866C90.4226 12.3034 90.1967 11.6896 89.6778 10.8733C89.5156 10.6171 89.3084 10.2731 89.2176 10.1083C88.9849 9.685 87.8886 8.55453 87.2746 8.10403C85.3231 6.67312 82.868 6.08695 80.6117 6.5135ZM105.584 6.45524C104.869 6.63441 104.173 7.30597 103.909 8.0713L103.745 8.54535V10.8733C103.745 13.1365 103.75 13.2128 103.891 13.6329C104.619 15.8048 107.591 15.9952 108.564 13.9322C108.848 13.3296 108.864 13.141 108.843 10.7057L108.824 8.41247L108.63 7.98032C108.083 6.7601 106.843 6.13962 105.584 6.45524ZM106.698 9.27038L106.912 9.49661V11.2176C106.912 12.7304 106.899 12.9582 106.805 13.103C106.537 13.5153 106.197 13.5536 105.871 13.2076L105.658 12.9813V11.2388V9.49661L105.871 9.27038C106.025 9.10758 106.14 9.04414 106.284 9.04414C106.43 9.04414 106.545 9.10758 106.698 9.27038ZM10.8207 10.1706C14.6414 11.2124 16.2024 15.8711 13.8421 19.1863C13.3959 19.8127 13.2311 19.9754 12.436 20.5764C10.402 22.113 7.23328 21.5879 5.45141 19.4188C2.09645 15.3352 5.8776 8.82227 10.8207 10.1706ZM30.8335 10.1746C32.4551 10.7049 33.7419 11.8745 34.3434 13.3644L34.559 13.8991H29.4545H24.3504L24.4354 13.6433C24.6122 13.1114 25.0331 12.3613 25.3171 12.0704C25.3886 11.997 25.5093 11.8513 25.5853 11.746C26.557 10.3984 29.1461 9.62313 30.8335 10.1746ZM83.4954 10.2097C84.5685 10.5396 85.1663 10.9124 85.9227 11.7236C89.7432 15.8228 86.1571 22.5863 80.8499 21.2899C79.9655 21.074 79.6454 20.9004 78.6279 20.0848C77.1089 18.867 76.4074 16.4289 76.9445 14.2363C77.6833 11.2229 80.7197 9.35657 83.4954 10.2097ZM112.717 14.6572C112.834 14.7818 112.93 14.9481 112.93 15.0276C112.93 15.4026 112.261 17.1891 112.058 17.3575C112.036 17.3754 111.842 17.63 111.625 17.9225C111.409 18.2154 111.138 18.5294 111.025 18.6208C110.909 18.7126 110.608 18.9555 110.353 19.1614C109.656 19.7249 109.014 20.027 107.758 20.3837C106.22 20.8206 103.773 20.3546 102.436 19.3702C101.515 18.6926 100.442 17.5143 100.299 17.0246C100.271 16.9333 100.157 16.6623 100.044 16.4221C99.5012 15.2726 99.5887 14.664 100.298 14.664C100.654 14.664 100.793 14.8077 100.962 15.3531C101.037 15.5957 101.193 15.968 101.309 16.1804C101.425 16.3926 101.521 16.5902 101.521 16.6193C101.521 16.8766 102.805 18.1571 103.351 18.4429C106.66 20.1786 110.485 18.7824 111.519 15.4621C111.843 14.4195 112.242 14.1525 112.717 14.6572Z" fill="white"/>
<path fill-rule="evenodd" clip-rule="evenodd" d="M15.0916 0.671745C14.9777 0.805419 14.9712 0.98059 14.9551 4.52874C14.9445 6.78245 14.9144 8.24608 14.8791 8.24608C14.8467 8.24608 14.7696 8.18981 14.708 8.12118C14.5797 7.97754 13.9119 7.5378 13.4282 7.27763C12.1451 6.58812 9.95024 6.22621 8.40276 6.44926C7.28218 6.61046 5.32916 7.34787 4.87852 7.77922C4.80968 7.84546 4.55577 8.0342 4.31428 8.19899C3.89411 8.48549 2.46471 9.95429 2.46471 10.0992C2.46471 10.1367 2.30521 10.4144 2.10999 10.7164C1.5277 11.6187 1.2689 12.2998 0.913804 13.866C0.635823 15.0922 0.75657 17.0981 1.2121 18.8203C1.38551 19.4767 2.21193 21.1151 2.4143 21.2037C2.44214 21.2156 2.46471 21.2568 2.46471 21.2946C2.46471 21.5281 3.59807 22.7396 4.40832 23.372C6.5987 25.0822 9.94013 25.5926 12.4713 24.6034C13.1499 24.3385 14.375 23.6748 14.6816 23.4063L14.9096 23.2064L14.9408 23.9678C14.9693 24.6577 14.9863 24.7451 15.124 24.9003L15.2759 25.0719H16.6688C17.9467 25.0719 18.0738 25.0615 18.2096 24.9446L18.3574 24.8177V13.5416C18.3574 3.60539 18.3466 2.25429 18.2634 2.16929C18.2119 2.11622 17.9719 1.9622 17.7307 1.82653C17.4892 1.69086 17.2353 1.52766 17.1665 1.46341C16.3623 0.716435 15.3748 0.339755 15.0916 0.671745ZM67.7693 0.653389C67.6809 0.757137 67.6658 0.951064 67.6658 1.96858C67.6658 3.32887 67.6613 3.31411 68.1812 3.66485C68.3633 3.78775 68.5656 3.93978 68.6307 4.00282C68.6962 4.06587 68.908 4.20354 69.1009 4.30848C69.2942 4.41342 69.6449 4.63927 69.8796 4.81005C70.4412 5.21826 70.774 5.23023 70.9595 4.84956C71.0971 4.56704 71.0938 1.01172 70.9553 0.728007L70.8598 0.531686H69.3665C67.9995 0.531686 67.8645 0.542061 67.7693 0.653389ZM104.812 0.576775C103.921 0.696484 102.416 1.17651 101.659 1.58193C101.462 1.68767 101.223 1.79461 101.129 1.81895C100.927 1.87202 99.7296 2.71755 99.1131 3.24347C98.3047 3.93299 96.9944 5.46805 96.6929 6.07936C96.4823 6.50552 96.1775 7.0502 96.1325 7.07972C96.0535 7.1316 95.4591 8.65189 95.313 9.17741C94.7483 11.2033 94.7492 11.1937 94.7492 17.3794V22.7383L94.9003 23.1804C94.9835 23.4238 95.1202 23.702 95.2026 23.7986C95.285 23.8955 95.3988 24.0523 95.454 24.1477C95.5983 24.3943 96.2072 24.8046 96.6445 24.9489C97.1566 25.1178 106.498 25.1365 107.602 24.9705C109.369 24.7052 111.554 23.8046 112.773 22.8385C112.98 22.6745 113.207 22.5149 113.277 22.4838C113.346 22.4522 113.666 22.1613 113.989 21.8373C114.312 21.5129 114.601 21.2376 114.631 21.2253C114.662 21.2129 114.905 20.9148 115.172 20.5629C115.44 20.2109 115.717 19.8534 115.792 19.7688C115.865 19.6842 116.03 19.3989 116.158 19.1347C116.286 18.8702 116.428 18.6092 116.475 18.5541C116.521 18.4987 116.696 18.1392 116.866 17.7549C118.134 14.8743 118.178 10.9396 116.975 8.01265C116.78 7.5374 116.582 7.10406 116.536 7.049C116.49 6.99433 116.351 6.73496 116.228 6.4732C115.763 5.4888 114.184 3.63293 113.212 2.93183C113.04 2.80694 112.758 2.59466 112.585 2.45899C110.817 1.07037 107.362 0.234011 104.812 0.576775ZM107.194 5.15721C108.56 5.53469 109.655 6.70623 110.014 8.17585C110.18 8.8542 110.151 13.103 109.977 13.7255C109.836 14.2295 109.67 14.6129 109.495 14.842C108.693 15.8946 108.176 16.3008 107.269 16.5909C105.429 17.1791 103.244 15.9278 102.661 13.9521C102.474 13.3201 102.371 9.25362 102.52 8.43921C102.961 6.03946 105.058 4.56705 107.194 5.15721ZM28.7018 6.35988C27.3559 6.47799 25.2234 7.28004 24.4896 7.94402C24.3583 8.06293 24.1537 8.21336 24.0348 8.278C23.6154 8.50704 22.3567 9.96991 22.0024 10.6403C20.9609 12.6103 20.646 13.7874 20.646 15.7075C20.646 23.7695 29.646 28.0733 35.3139 22.722C37.2481 20.8956 37.3257 20.4903 35.8078 20.1267C35.3824 20.025 34.773 19.8686 34.4544 19.78C33.5922 19.5397 33.4437 19.5553 33.048 19.9284C31.177 21.6913 28.5314 21.904 26.5084 20.4543C25.5233 19.7484 24.6939 18.6771 24.44 17.7829L24.3572 17.4904H31.1152H37.8733L38.0757 17.2896L38.2784 17.0889L38.243 15.7434C38.2227 14.9581 38.1705 14.2179 38.1174 13.9657C38.0678 13.7279 37.9806 13.3089 37.9233 13.0344C37.8083 12.4818 37.279 11.2552 36.9337 10.74C36.8111 10.5572 36.6933 10.3478 36.6722 10.2744C36.5977 10.015 35.2819 8.57567 34.846 8.2764C34.6733 8.1583 34.427 7.97195 34.2979 7.86221C33.1732 6.90734 30.5356 6.19946 28.7018 6.35988ZM46.9455 6.45125C46.4053 6.50153 45.5037 6.72818 45.2167 6.88539C45.1192 6.93887 44.9952 6.98276 44.9406 6.98276C44.1503 6.98276 42.1529 8.98348 41.3968 10.5329C40.4749 12.4211 40.4489 12.6704 40.4707 19.3749L40.4884 24.7511L40.6641 24.9114C40.8905 25.1178 43.3995 25.1648 43.6827 24.9681C43.9355 24.7921 43.9355 24.7917 43.9678 18.9536L43.9991 13.2674L44.1913 12.7646C44.2974 12.4881 44.5419 12.0392 44.7348 11.7671C45.3725 10.8673 45.3178 10.9168 46.2248 10.4164C47.1904 9.8833 48.2286 9.92839 49.1698 10.5441C49.4184 10.7069 49.6418 10.8397 49.6659 10.8397C49.8972 10.8397 50.8169 12.2974 51.0246 12.9925C51.2826 13.8572 51.3018 14.3221 51.3022 19.689C51.3029 24.7207 51.3044 24.7826 51.4305 24.9263C51.6393 25.164 54.2182 25.1513 54.4811 24.9114L54.6568 24.7511L54.691 19.1754L54.7256 13.5998L54.919 12.9681C56.1189 9.05092 60.5065 9.12234 61.8181 13.0807L61.9904 13.5998L62.0223 19.2261C62.0491 23.8592 62.0697 24.8715 62.1409 24.9621C62.2981 25.1632 65.0899 25.1238 65.2723 24.9179L65.4089 24.7642V19.1771C65.4089 12.88 65.4164 13.0069 64.9406 11.5408C64.5306 10.2771 63.5668 8.73409 62.9014 8.27521C62.7807 8.19221 62.5595 8.00626 62.4098 7.86262C61.2264 6.72459 58.5692 6.11368 56.8622 6.58732C55.3869 6.99672 54.4326 7.57053 53.4211 8.65588L52.9378 9.17462L52.6688 8.83983C51.3451 7.19105 49.0922 6.25055 46.9455 6.45125ZM68.0589 6.4309C67.635 6.51749 67.6658 5.78967 67.6658 15.7985V24.7962L67.831 24.9342C67.9968 25.0727 70.4637 25.1537 70.7661 25.0304C71.0596 24.9111 71.0513 25.19 71.0513 15.7613C71.0513 6.08854 71.0705 6.59729 70.6992 6.44766C70.5472 6.38621 68.3444 6.37225 68.0589 6.4309ZM80.6117 6.5135C79.8444 6.65875 78.7384 7.02585 78.1953 7.31635C77.7748 7.541 77.124 7.96277 77.0699 8.04577C77.0526 8.07171 76.9114 8.17664 76.7561 8.278C76.6011 8.37975 76.2092 8.75085 75.8857 9.10279C73.7551 11.4191 72.9577 14.1724 73.4372 17.557C73.7709 19.9104 75.675 22.7296 77.6965 23.8632C78.5358 24.3337 78.7155 24.4198 79.3136 24.6381C82.4275 25.7746 86.0297 24.8631 88.4168 22.3357C90.4056 20.2304 91.4076 16.634 90.7775 13.866C90.4226 12.3034 90.1967 11.6896 89.6778 10.8733C89.5156 10.6171 89.3084 10.2731 89.2176 10.1083C88.9849 9.685 87.8886 8.55453 87.2746 8.10403C85.3231 6.67312 82.868 6.08695 80.6117 6.5135ZM105.584 6.45524C104.869 6.63441 104.173 7.30597 103.909 8.0713L103.745 8.54535V10.8733C103.745 13.1365 103.75 13.2128 103.891 13.6329C104.619 15.8048 107.591 15.9952 108.564 13.9322C108.848 13.3296 108.864 13.141 108.843 10.7057L108.824 8.41247L108.63 7.98032C108.083 6.7601 106.843 6.13962 105.584 6.45524ZM106.698 9.27038L106.912 9.49661V11.2176C106.912 12.7304 106.899 12.9582 106.805 13.103C106.537 13.5153 106.197 13.5536 105.871 13.2076L105.658 12.9813V11.2388V9.49661L105.871 9.27038C106.025 9.10758 106.14 9.04414 106.284 9.04414C106.43 9.04414 106.545 9.10758 106.698 9.27038ZM10.8207 10.1706C14.6414 11.2124 16.2024 15.8711 13.8421 19.1863C13.3959 19.8127 13.2311 19.9754 12.436 20.5764C10.402 22.113 7.23328 21.5879 5.45141 19.4188C2.09645 15.3352 5.8776 8.82227 10.8207 10.1706ZM30.8335 10.1746C32.4551 10.7049 33.7419 11.8745 34.3434 13.3644L34.559 13.8991H29.4545H24.3504L24.4354 13.6433C24.6122 13.1114 25.0331 12.3613 25.3171 12.0704C25.3886 11.997 25.5093 11.8513 25.5853 11.746C26.557 10.3984 29.1461 9.62313 30.8335 10.1746ZM83.4954 10.2097C84.5685 10.5396 85.1663 10.9124 85.9227 11.7236C89.7432 15.8228 86.1571 22.5863 80.8499 21.2899C79.9655 21.074 79.6454 20.9004 78.6279 20.0848C77.1089 18.867 76.4074 16.4289 76.9445 14.2363C77.6833 11.2229 80.7197 9.35657 83.4954 10.2097ZM112.717 14.6572C112.834 14.7818 112.93 14.9481 112.93 15.0276C112.93 15.4026 112.261 17.1891 112.058 17.3575C112.036 17.3754 111.842 17.63 111.625 17.9225C111.409 18.2154 111.138 18.5294 111.025 18.6208C110.909 18.7126 110.608 18.9555 110.353 19.1614C109.656 19.7249 109.014 20.027 107.758 20.3837C106.22 20.8206 103.773 20.3546 102.436 19.3702C101.515 18.6926 100.442 17.5143 100.299 17.0246C100.271 16.9333 100.157 16.6623 100.044 16.4221C99.5012 15.2726 99.5887 14.664 100.298 14.664C100.654 14.664 100.793 14.8077 100.962 15.3531C101.037 15.5957 101.193 15.968 101.309 16.1804C101.425 16.3926 101.521 16.5902 101.521 16.6193C101.521 16.8766 102.805 18.1571 103.351 18.4429C106.66 20.1786 110.485 18.7824 111.519 15.4621C111.843 14.4195 112.242 14.1525 112.717 14.6572Z" fill="white"/>
<path fill-rule="evenodd" clip-rule="evenodd" d="M15.0916 0.671745C14.9777 0.805419 14.9712 0.98059 14.9551 4.52874C14.9445 6.78245 14.9144 8.24608 14.8791 8.24608C14.8467 8.24608 14.7696 8.18981 14.708 8.12118C14.5797 7.97754 13.9119 7.5378 13.4282 7.27763C12.1451 6.58812 9.95024 6.22621 8.40276 6.44926C7.28218 6.61046 5.32916 7.34787 4.87852 7.77922C4.80968 7.84546 4.55577 8.0342 4.31428 8.19899C3.89411 8.48549 2.46471 9.95429 2.46471 10.0992C2.46471 10.1367 2.30521 10.4144 2.10999 10.7164C1.5277 11.6187 1.2689 12.2998 0.913804 13.866C0.635823 15.0922 0.75657 17.0981 1.2121 18.8203C1.38551 19.4767 2.21193 21.1151 2.4143 21.2037C2.44214 21.2156 2.46471 21.2568 2.46471 21.2946C2.46471 21.5281 3.59807 22.7396 4.40832 23.372C6.5987 25.0822 9.94013 25.5926 12.4713 24.6034C13.1499 24.3385 14.375 23.6748 14.6816 23.4063L14.9096 23.2064L14.9408 23.9678C14.9693 24.6577 14.9863 24.7451 15.124 24.9003L15.2759 25.0719H16.6688C17.9467 25.0719 18.0738 25.0615 18.2096 24.9446L18.3574 24.8177V13.5416C18.3574 3.60539 18.3466 2.25429 18.2634 2.16929C18.2119 2.11622 17.9719 1.9622 17.7307 1.82653C17.4892 1.69086 17.2353 1.52766 17.1665 1.46341C16.3623 0.716435 15.3748 0.339755 15.0916 0.671745ZM67.7693 0.653389C67.6809 0.757137 67.6658 0.951064 67.6658 1.96858C67.6658 3.32887 67.6613 3.31411 68.1812 3.66485C68.3633 3.78775 68.5656 3.93978 68.6307 4.00282C68.6962 4.06587 68.908 4.20354 69.1009 4.30848C69.2942 4.41342 69.6449 4.63927 69.8796 4.81005C70.4412 5.21826 70.774 5.23023 70.9595 4.84956C71.0971 4.56704 71.0938 1.01172 70.9553 0.728007L70.8598 0.531686H69.3665C67.9995 0.531686 67.8645 0.542061 67.7693 0.653389ZM104.812 0.576775C103.921 0.696484 102.416 1.17651 101.659 1.58193C101.462 1.68767 101.223 1.79461 101.129 1.81895C100.927 1.87202 99.7296 2.71755 99.1131 3.24347C98.3047 3.93299 96.9944 5.46805 96.6929 6.07936C96.4823 6.50552 96.1775 7.0502 96.1325 7.07972C96.0535 7.1316 95.4591 8.65189 95.313 9.17741C94.7483 11.2033 94.7492 11.1937 94.7492 17.3794V22.7383L94.9003 23.1804C94.9835 23.4238 95.1202 23.702 95.2026 23.7986C95.285 23.8955 95.3988 24.0523 95.454 24.1477C95.5983 24.3943 96.2072 24.8046 96.6445 24.9489C97.1566 25.1178 106.498 25.1365 107.602 24.9705C109.369 24.7052 111.554 23.8046 112.773 22.8385C112.98 22.6745 113.207 22.5149 113.277 22.4838C113.346 22.4522 113.666 22.1613 113.989 21.8373C114.312 21.5129 114.601 21.2376 114.631 21.2253C114.662 21.2129 114.905 20.9148 115.172 20.5629C115.44 20.2109 115.717 19.8534 115.792 19.7688C115.865 19.6842 116.03 19.3989 116.158 19.1347C116.286 18.8702 116.428 18.6092 116.475 18.5541C116.521 18.4987 116.696 18.1392 116.866 17.7549C118.134 14.8743 118.178 10.9396 116.975 8.01265C116.78 7.5374 116.582 7.10406 116.536 7.049C116.49 6.99433 116.351 6.73496 116.228 6.4732C115.763 5.4888 114.184 3.63293 113.212 2.93183C113.04 2.80694 112.758 2.59466 112.585 2.45899C110.817 1.07037 107.362 0.234011 104.812 0.576775ZM107.194 5.15721C108.56 5.53469 109.655 6.70623 110.014 8.17585C110.18 8.8542 110.151 13.103 109.977 13.7255C109.836 14.2295 109.67 14.6129 109.495 14.842C108.693 15.8946 108.176 16.3008 107.269 16.5909C105.429 17.1791 103.244 15.9278 102.661 13.9521C102.474 13.3201 102.371 9.25362 102.52 8.43921C102.961 6.03946 105.058 4.56705 107.194 5.15721ZM28.7018 6.35988C27.3559 6.47799 25.2234 7.28004 24.4896 7.94402C24.3583 8.06293 24.1537 8.21336 24.0348 8.278C23.6154 8.50704 22.3567 9.96991 22.0024 10.6403C20.9609 12.6103 20.646 13.7874 20.646 15.7075C20.646 23.7695 29.646 28.0733 35.3139 22.722C37.2481 20.8956 37.3257 20.4903 35.8078 20.1267C35.3824 20.025 34.773 19.8686 34.4544 19.78C33.5922 19.5397 33.4437 19.5553 33.048 19.9284C31.177 21.6913 28.5314 21.904 26.5084 20.4543C25.5233 19.7484 24.6939 18.6771 24.44 17.7829L24.3572 17.4904H31.1152H37.8733L38.0757 17.2896L38.2784 17.0889L38.243 15.7434C38.2227 14.9581 38.1705 14.2179 38.1174 13.9657C38.0678 13.7279 37.9806 13.3089 37.9233 13.0344C37.8083 12.4818 37.279 11.2552 36.9337 10.74C36.8111 10.5572 36.6933 10.3478 36.6722 10.2744C36.5977 10.015 35.2819 8.57567 34.846 8.2764C34.6733 8.1583 34.427 7.97195 34.2979 7.86221C33.1732 6.90734 30.5356 6.19946 28.7018 6.35988ZM46.9455 6.45125C46.4053 6.50153 45.5037 6.72818 45.2167 6.88539C45.1192 6.93887 44.9952 6.98276 44.9406 6.98276C44.1503 6.98276 42.1529 8.98348 41.3968 10.5329C40.4749 12.4211 40.4489 12.6704 40.4707 19.3749L40.4884 24.7511L40.6641 24.9114C40.8905 25.1178 43.3995 25.1648 43.6827 24.9681C43.9355 24.7921 43.9355 24.7917 43.9678 18.9536L43.9991 13.2674L44.1913 12.7646C44.2974 12.4881 44.5419 12.0392 44.7348 11.7671C45.3725 10.8673 45.3178 10.9168 46.2248 10.4164C47.1904 9.8833 48.2286 9.92839 49.1698 10.5441C49.4184 10.7069 49.6418 10.8397 49.6659 10.8397C49.8972 10.8397 50.8169 12.2974 51.0246 12.9925C51.2826 13.8572 51.3018 14.3221 51.3022 19.689C51.3029 24.7207 51.3044 24.7826 51.4305 24.9263C51.6393 25.164 54.2182 25.1513 54.4811 24.9114L54.6568 24.7511L54.691 19.1754L54.7256 13.5998L54.919 12.9681C56.1189 9.05092 60.5065 9.12234 61.8181 13.0807L61.9904 13.5998L62.0223 19.2261C62.0491 23.8592 62.0697 24.8715 62.1409 24.9621C62.2981 25.1632 65.0899 25.1238 65.2723 24.9179L65.4089 24.7642V19.1771C65.4089 12.88 65.4164 13.0069 64.9406 11.5408C64.5306 10.2771 63.5668 8.73409 62.9014 8.27521C62.7807 8.19221 62.5595 8.00626 62.4098 7.86262C61.2264 6.72459 58.5692 6.11368 56.8622 6.58732C55.3869 6.99672 54.4326 7.57053 53.4211 8.65588L52.9378 9.17462L52.6688 8.83983C51.3451 7.19105 49.0922 6.25055 46.9455 6.45125ZM68.0589 6.4309C67.635 6.51749 67.6658 5.78967 67.6658 15.7985V24.7962L67.831 24.9342C67.9968 25.0727 70.4637 25.1537 70.7661 25.0304C71.0596 24.9111 71.0513 25.19 71.0513 15.7613C71.0513 6.08854 71.0705 6.59729 70.6992 6.44766C70.5472 6.38621 68.3444 6.37225 68.0589 6.4309ZM80.6117 6.5135C79.8444 6.65875 78.7384 7.02585 78.1953 7.31635C77.7748 7.541 77.124 7.96277 77.0699 8.04577C77.0526 8.07171 76.9114 8.17664 76.7561 8.278C76.6011 8.37975 76.2092 8.75085 75.8857 9.10279C73.7551 11.4191 72.9577 14.1724 73.4372 17.557C73.7709 19.9104 75.675 22.7296 77.6965 23.8632C78.5358 24.3337 78.7155 24.4198 79.3136 24.6381C82.4275 25.7746 86.0297 24.8631 88.4168 22.3357C90.4056 20.2304 91.4076 16.634 90.7775 13.866C90.4226 12.3034 90.1967 11.6896 89.6778 10.8733C89.5156 10.6171 89.3084 10.2731 89.2176 10.1083C88.9849 9.685 87.8886 8.55453 87.2746 8.10403C85.3231 6.67312 82.868 6.08695 80.6117 6.5135ZM105.584 6.45524C104.869 6.63441 104.173 7.30597 103.909 8.0713L103.745 8.54535V10.8733C103.745 13.1365 103.75 13.2128 103.891 13.6329C104.619 15.8048 107.591 15.9952 108.564 13.9322C108.848 13.3296 108.864 13.141 108.843 10.7057L108.824 8.41247L108.63 7.98032C108.083 6.7601 106.843 6.13962 105.584 6.45524ZM106.698 9.27038L106.912 9.49661V11.2176C106.912 12.7304 106.899 12.9582 106.805 13.103C106.537 13.5153 106.197 13.5536 105.871 13.2076L105.658 12.9813V11.2388V9.49661L105.871 9.27038C106.025 9.10758 106.14 9.04414 106.284 9.04414C106.43 9.04414 106.545 9.10758 106.698 9.27038ZM10.8207 10.1706C14.6414 11.2124 16.2024 15.8711 13.8421 19.1863C13.3959 19.8127 13.2311 19.9754 12.436 20.5764C10.402 22.113 7.23328 21.5879 5.45141 19.4188C2.09645 15.3352 5.8776 8.82227 10.8207 10.1706ZM30.8335 10.1746C32.4551 10.7049 33.7419 11.8745 34.3434 13.3644L34.559 13.8991H29.4545H24.3504L24.4354 13.6433C24.6122 13.1114 25.0331 12.3613 25.3171 12.0704C25.3886 11.997 25.5093 11.8513 25.5853 11.746C26.557 10.3984 29.1461 9.62313 30.8335 10.1746ZM83.4954 10.2097C84.5685 10.5396 85.1663 10.9124 85.9227 11.7236C89.7432 15.8228 86.1571 22.5863 80.8499 21.2899C79.9655 21.074 79.6454 20.9004 78.6279 20.0848C77.1089 18.867 76.4074 16.4289 76.9445 14.2363C77.6833 11.2229 80.7197 9.35657 83.4954 10.2097ZM112.717 14.6572C112.834 14.7818 112.93 14.9481 112.93 15.0276C112.93 15.4026 112.261 17.1891 112.058 17.3575C112.036 17.3754 111.842 17.63 111.625 17.9225C111.409 18.2154 111.138 18.5294 111.025 18.6208C110.909 18.7126 110.608 18.9555 110.353 19.1614C109.656 19.7249 109.014 20.027 107.758 20.3837C106.22 20.8206 103.773 20.3546 102.436 19.3702C101.515 18.6926 100.442 17.5143 100.299 17.0246C100.271 16.9333 100.157 16.6623 100.044 16.4221C99.5012 15.2726 99.5887 14.664 100.298 14.664C100.654 14.664 100.793 14.8077 100.962 15.3531C101.037 15.5957 101.193 15.968 101.309 16.1804C101.425 16.3926 101.521 16.5902 101.521 16.6193C101.521 16.8766 102.805 18.1571 103.351 18.4429C106.66 20.1786 110.485 18.7824 111.519 15.4621C111.843 14.4195 112.242 14.1525 112.717 14.6572Z" fill="white"/>
</g>
<defs>
<clipPath id="clip0">
<rect width="117.188" height="25" fill="white" transform="translate(0.765625 0.5)"/>
</clipPath>
</defs>
</svg>
