<svg width="118" height="26" viewBox="0 0 118 26" fill="none" xmlns="http://www.w3.org/2000/svg">
<g clip-path="url(#clip0)">
<path d="M16.388 14.4235C16.3481 14.4708 16.3099 14.5201 16.2675 14.5646L16.2667 14.5739L12.2844 19.0286L12.2777 19.0267C12.0135 19.3243 11.699 19.5604 11.3528 19.7214C11.0065 19.8824 10.6351 19.9651 10.26 19.9647H6.34001C6.2623 19.9645 6.18533 19.9816 6.11351 20.0147C6.04169 20.0479 5.97641 20.0966 5.92143 20.158C5.86644 20.2194 5.82282 20.2924 5.79306 20.3727C5.76329 20.4529 5.74798 20.5389 5.74798 20.6258V24.541L5.73552 24.5419C5.71429 24.6861 5.65795 24.8208 5.57269 24.9315C5.48744 25.0422 5.37656 25.1245 5.25224 25.1692C5.12792 25.2141 4.99497 25.2197 4.86797 25.1855C4.74098 25.1514 4.62486 25.0787 4.53236 24.9756L4.52987 24.9774L0.917903 20.9398L0.921223 20.9333C0.644656 20.6367 0.424618 20.2805 0.274355 19.8864C0.124091 19.4921 0.0467122 19.068 0.0468753 18.6395V8.5369C0.0468753 7.68067 0.349949 6.90525 0.841508 6.33228L0.839848 6.32671L4.93508 1.74668L4.93674 1.74761C5.46821 1.16432 6.18326 0.837837 6.92788 0.838471H10.26C10.6852 0.838471 11.087 0.945265 11.4483 1.13192V1.12449C11.7572 1.28515 12.0378 1.50152 12.2736 1.76711L12.2786 1.76432L17.1394 7.20056L17.1402 13.5775H22.8281V23.4861C22.8297 23.4917 22.8297 23.4981 22.8297 23.5046V23.7284C22.8047 24.1306 22.6442 24.5072 22.3807 24.7822C22.1172 25.0573 21.7703 25.2103 21.4098 25.2105H18.5592C18.3623 25.2104 18.1677 25.1646 17.9873 25.0761C17.8071 24.9875 17.6451 24.8581 17.5118 24.6961C17.3785 24.5341 17.2766 24.3429 17.2127 24.1346C17.1487 23.9264 17.124 23.7055 17.1402 23.4861V13.5775L16.388 14.4235ZM10.8562 13.5849C10.9339 13.5851 11.0109 13.568 11.0827 13.5349C11.1546 13.5017 11.2198 13.453 11.2748 13.3916C11.3298 13.3302 11.3734 13.2573 11.4032 13.177C11.433 13.0967 11.4483 13.0107 11.4483 12.9237V7.87754C11.4483 7.79063 11.433 7.70458 11.4032 7.6243C11.3734 7.54402 11.3298 7.47109 11.2748 7.40968C11.2198 7.34827 11.1546 7.29959 11.0827 7.26641C11.0109 7.23324 10.9339 7.21623 10.8562 7.21635V7.21542H6.33918C6.1823 7.21542 6.03184 7.28505 5.92084 7.40902C5.80984 7.53299 5.74737 7.70116 5.74715 7.87661V12.9219C5.74715 13.2878 6.01202 13.5831 6.33918 13.5831H10.8545L10.8562 13.5849Z" fill="white"/>
<path d="M17.1436 13.5842H22.8314L17.1436 7.20905V13.5842Z" fill="white"/>
<path d="M30.894 6.15017H36.1575C38.3081 6.15017 40.2162 6.15017 41.3654 7.99537C41.8661 8.82464 42.1069 10.0058 42.1069 11.0005C42.1069 11.8083 41.9583 12.5968 41.6619 13.2802C40.5318 15.8925 38.1221 15.9547 36.3427 15.9955H34.1747V20.7836H30.894V6.15017ZM34.1763 8.84509V13.2802H36.1426C37.3673 13.2802 38.8511 13.2394 38.8511 10.98C38.8511 8.84418 37.1996 8.84418 36.2538 8.84418L34.1763 8.84509ZM46.0377 11.0812C46.6679 10.4795 47.3538 10.0031 48.836 9.83683V12.6562L47.891 12.8215C46.5201 13.0908 46.1116 13.3193 46.1116 14.6871V20.7808H43.2578V9.94085H46.0377V11.0812ZM59.9741 15.3483C59.9741 18.085 58.5658 21.0901 54.7845 21.0901C52.0602 21.0901 49.5766 19.3489 49.5766 15.3483C49.5766 12.0321 51.4482 9.39948 55.1557 9.62789C59.1031 9.87676 59.9741 13.3796 59.9741 15.3483ZM52.9312 13.2152C52.5791 13.8374 52.4496 14.585 52.4496 15.3325C52.4496 17.0552 53.1903 18.5707 54.7845 18.5707C56.3231 18.5707 57.0829 17.1796 57.0829 15.4783C57.0829 14.2739 56.823 13.3397 56.2858 12.7583C55.6929 12.1362 55.0253 12.1148 54.6176 12.1566C53.8022 12.2188 53.3206 12.5299 52.932 13.2152H52.9312ZM62.2916 8.88039C62.2916 8.34176 62.3281 7.61556 62.6985 7.03516C63.0514 6.49655 63.8477 5.93658 65.1828 5.93658C65.7574 5.93658 66.3321 6.04059 66.8875 6.12231V8.50706H66.2017C65.1272 8.50706 65.0716 8.75592 65.0899 10.2065H66.9988V12.1547H65.1081V20.778H62.2725V12.1547H60.753V10.2065H62.2916V8.88039Z" fill="white"/>
<path d="M68.4254 8.59795H71.2413V6.1315H68.4254V8.59795ZM68.4254 20.7863H71.2413V9.94545H68.4254V20.7863Z" fill="white"/>
<path d="M74.1514 6.82803H76.9869V10.2064H78.8592V12.1547H76.9686V17.0263C76.9503 17.6894 76.9503 18.2493 77.7104 18.2493L78.7292 18.2076V20.6945C78.1182 20.7985 77.747 20.8607 77.2288 20.8607C76.2452 20.8607 75.1709 20.7985 74.5592 19.8029C74.1704 19.1613 74.1521 18.3942 74.1521 17.3579V12.1343H72.7431V10.186H74.1514V6.82803Z" fill="white"/>
<path d="M89.5666 6.15039C89.9568 7.72535 90.3449 9.30122 90.7703 10.8771C91.4944 13.6955 91.6238 14.1515 92.0316 16.9913C92.4204 14.0893 92.5132 13.5925 93.1059 10.6069C93.3843 9.11463 93.6804 7.62228 93.9588 6.15039H97.2021L93.8849 20.7839H90.5115C90.1044 19.168 89.7143 17.5503 89.2882 15.9549C88.5837 13.26 88.5465 13.156 88.157 11.1046C87.8244 12.908 87.7871 13.053 87.0454 15.8509L85.7848 20.7839H82.4121L79.0949 6.15039H82.3572C83.7655 13.0938 83.9145 13.8608 84.3026 17.0321C84.7843 14.1311 84.915 13.5711 85.6005 10.6691L86.6748 6.15039H89.5666Z" fill="white"/>
<path d="M106.784 18.0296C106.45 18.5895 106.116 19.1281 105.616 19.6463C104.781 20.5174 103.521 21.1804 101.965 21.1804C99.092 21.1804 97.072 19.1281 97.072 15.5835C97.072 12.9722 98.2209 9.61426 102.039 9.61426C102.614 9.61426 104.281 9.67645 105.523 11.1688C106.784 12.6824 106.857 14.796 106.895 16.019H99.9821C99.9631 17.3655 100.649 18.714 102.188 18.714C103.744 18.714 104.281 17.5736 104.634 16.8065L106.784 18.0296ZM103.947 14.0197C103.892 13.5655 103.818 12.9675 103.41 12.493C103.057 12.1002 102.522 11.894 102.02 11.894C101.335 11.894 100.853 12.2655 100.575 12.5961C100.185 13.0706 100.093 13.5655 100 14.0197H103.947Z" fill="white"/>
<path d="M108.547 20.7839H111.401V6.15039H108.547V20.7839Z" fill="white"/>
<path d="M113.952 20.7839H116.806V6.15039H113.952V20.7839Z" fill="white"/>
</g>
<defs>
<clipPath id="clip0">
<rect width="117.188" height="25" fill="white" transform="translate(0.046875 0.5)"/>
</clipPath>
</defs>
</svg>
